<svg width="30" height="30" viewBox="0 0 30 30" fill="none" xmlns="http://www.w3.org/2000/svg">
<path fill-rule="evenodd" clip-rule="evenodd" d="M15 27.2727C16.6117 27.2727 18.2076 26.9553 19.6966 26.3385C21.1856 25.7218 22.5385 24.8178 23.6781 23.6781C24.8178 22.5385 25.7218 21.1856 26.3385 19.6966C26.9553 18.2076 27.2727 16.6117 27.2727 15C27.2727 13.3883 26.9553 11.7924 26.3385 10.3034C25.7218 8.81443 24.8178 7.4615 23.6781 6.32187C22.5385 5.18224 21.1856 4.27824 19.6966 3.66148C18.2076 3.04472 16.6117 2.72727 15 2.72727C11.7451 2.72727 8.62345 4.02029 6.32187 6.32187C4.02029 8.62345 2.72727 11.7451 2.72727 15C2.72727 18.2549 4.02029 21.3765 6.32187 23.6781C8.62345 25.9797 11.7451 27.2727 15 27.2727V27.2727ZM15 30C23.2841 30 30 23.2841 30 15C30 6.71591 23.2841 0 15 0C6.71591 0 0 6.71591 0 15C0 23.2841 6.71591 30 15 30Z" fill="#DF002F"/>
<path d="M20.4545 14.9998L12.2727 20.9043V9.09521L20.4545 14.9998Z" fill="#DF002F"/>
</svg>
