<svg width="103" height="24" viewBox="0 0 103 24" fill="none" xmlns="http://www.w3.org/2000/svg">
<g clip-path="url(#clip0_619_314)">
<path d="M21.5229 17.6594H26.7611V22.7967H21.5229V17.6594Z" fill="#DF002F"/>
<path d="M9.6032 23.1177C7.87872 23.1177 6.18657 22.8287 4.52676 22.2508C2.86695 21.6514 1.35803 20.7417 0 19.5216L2.9424 16.0219C3.97708 16.8567 5.03333 17.5202 6.11113 18.0125C7.21049 18.5049 8.40684 18.751 9.7002 18.751C10.7349 18.751 11.5325 18.5691 12.0929 18.2052C12.6749 17.8199 12.9659 17.2955 12.9659 16.6319V16.5677C12.9659 16.2466 12.9013 15.9683 12.7719 15.7329C12.6642 15.476 12.4378 15.2406 12.0929 15.0265C11.7696 14.8125 11.3061 14.5984 10.7026 14.3844C10.1205 14.1703 9.35531 13.9455 8.40684 13.7101C7.26438 13.4318 6.22969 13.1214 5.30278 12.779C4.37587 12.4365 3.58908 12.0191 2.9424 11.5267C2.29571 11.013 1.78915 10.3816 1.4227 9.63238C1.0778 8.88319 0.905352 7.95206 0.905352 6.83899V6.77477C0.905352 5.74732 1.09936 4.82689 1.48736 4.01349C1.87537 3.17869 2.41427 2.46161 3.10406 1.86226C3.81541 1.26291 4.6561 0.802699 5.62612 0.481618C6.59614 0.160539 7.66316 0 8.82719 0C10.487 0 12.0067 0.246161 13.3863 0.738482C14.7874 1.2308 16.07 1.93718 17.234 2.85761L14.6473 6.58213C13.6342 5.89716 12.6426 5.36203 11.6726 4.97673C10.7026 4.57003 9.73254 4.36668 8.76252 4.36668C7.7925 4.36668 7.05959 4.55933 6.5638 4.94462C6.08957 5.30851 5.85246 5.76872 5.85246 6.32526V6.38948C5.85246 6.75337 5.91712 7.07445 6.04646 7.35272C6.19735 7.60958 6.45602 7.84504 6.82248 8.05909C7.18893 8.27314 7.68472 8.47649 8.30984 8.66914C8.95652 8.86179 9.76487 9.08654 10.7349 9.34341C11.8774 9.64308 12.8905 9.98557 13.7743 10.3709C14.6796 10.7348 15.4341 11.1843 16.0377 11.7194C16.6628 12.2331 17.1262 12.8432 17.428 13.5495C17.7514 14.2559 17.913 15.1014 17.913 16.0861V16.1503C17.913 17.2634 17.7083 18.2587 17.2987 19.1363C16.8891 19.9925 16.3179 20.7203 15.585 21.3197C14.8521 21.8976 13.9791 22.3471 12.9659 22.6682C11.9528 22.9679 10.8319 23.1177 9.6032 23.1177Z" fill="#252323"/>
<path d="M42.2535 18.4621C43.3528 18.4621 44.2151 18.2694 44.8402 17.8841C45.4653 17.4774 45.7779 16.8567 45.7779 16.0219V15.9576C45.7779 15.2085 45.4869 14.6198 44.9049 14.1917C44.3229 13.7422 43.3852 13.5174 42.0918 13.5174H36.3364V18.4621H42.2535ZM40.9278 9.40762C42.0271 9.40762 42.9002 9.22568 43.5468 8.86179C44.1935 8.47649 44.5169 7.86644 44.5169 7.03164V6.96742C44.5169 6.21824 44.2366 5.651 43.6762 5.2657C43.1157 4.859 42.3074 4.65565 41.2511 4.65565H36.3364V9.40762H40.9278ZM31.4863 0.321079H41.9948C44.6031 0.321079 46.5755 0.984643 47.9119 2.31177C48.9466 3.33922 49.464 4.61284 49.464 6.13261V6.19683C49.464 6.83899 49.3777 7.40623 49.2053 7.89855C49.0544 8.39087 48.8388 8.84038 48.5586 9.24708C48.2999 9.63238 47.9874 9.97486 47.6209 10.2745C47.276 10.5742 46.8988 10.8311 46.4892 11.0451C47.8042 11.5374 48.8388 12.2117 49.5933 13.0679C50.3478 13.9027 50.725 15.0693 50.725 16.5677V16.6319C50.725 17.6594 50.5202 18.5584 50.1106 19.329C49.7226 20.0996 49.1514 20.7417 48.3969 21.2554C47.664 21.7692 46.7695 22.1545 45.7132 22.4113C44.6785 22.6682 43.5253 22.7966 42.2535 22.7966H31.4863V0.321079Z" fill="#252323"/>
<path d="M67.8193 13.389L64.8123 6.10051L61.8052 13.389H67.8193ZM62.5812 0.160539H67.1726L76.8728 22.7966H71.6671L69.5977 17.7557H60.0268L57.9575 22.7966H52.881L62.5812 0.160539Z" fill="#252323"/>
<path d="M80.3662 0.321079H85.7336L91.6831 9.82503L97.6325 0.321079H103V22.7966H98.0529V8.12331L91.6831 17.7236H91.5538L85.2486 8.21963V22.7966H80.3662V0.321079Z" fill="#252323"/>
</g>
</svg>